<svg xmlns="http://www.w3.org/2000/svg" viewBox="0 0 1200 1200">
  <defs>
    <linearGradient id="bg" x1="0" y1="0" x2="1" y2="1">
      <stop offset="0%" stop-color="#1e0711"/>
      <stop offset="55%" stop-color="#561631"/>
      <stop offset="100%" stop-color="#80345d"/>
    </linearGradient>
    <radialGradient id="glow" cx="44%" cy="32%" r="44%">
      <stop offset="0%" stop-color="#ffd9e6" stop-opacity="0.6"/>
      <stop offset="100%" stop-color="#ffd9e6" stop-opacity="0"/>
    </radialGradient>
  </defs>
  <rect width="1200" height="1200" fill="url(#bg)"/>
  <rect width="1200" height="1200" fill="url(#glow)"/>
  <circle cx="270" cy="820" r="220" fill="#ffbad2" fill-opacity="0.12"/>
  <circle cx="950" cy="260" r="190" fill="#ffd79b" fill-opacity="0.16"/>
  <path d="M303 824c80-135 195-203 346-203 127 0 229 45 333 147-75 117-180 197-309 230-161 42-286 0-370-174z" fill="#fff7fb" fill-opacity="0.12"/>
  <path d="M612 403c44-71 122-103 185-74 44 20 67 65 59 112-13 75-87 116-244 242-156-126-230-167-243-242-8-47 15-92 59-112 63-29 141 3 184 74z" fill="#fff0f7" fill-opacity="0.88"/>
  <text x="106" y="160" fill="#fff3f7" font-family="Georgia, serif" font-size="42" letter-spacing="10">SOFT MOMENTS</text>
  <text x="100" y="1042" fill="#fff3f7" font-family="Georgia, serif" font-size="84" font-style="italic">Some feelings are already forever.</text>
</svg>
