<svg xmlns="http://www.w3.org/2000/svg" viewBox="0 0 1200 1200">
  <defs>
    <linearGradient id="bg" x1="0" y1="0" x2="1" y2="1">
      <stop offset="0%" stop-color="#0c0618"/>
      <stop offset="50%" stop-color="#21123c"/>
      <stop offset="100%" stop-color="#45132d"/>
    </linearGradient>
    <radialGradient id="moon" cx="72%" cy="22%" r="18%">
      <stop offset="0%" stop-color="#fff4d8"/>
      <stop offset="100%" stop-color="#fff4d8" stop-opacity="0"/>
    </radialGradient>
  </defs>
  <rect width="1200" height="1200" fill="url(#bg)"/>
  <rect width="1200" height="1200" fill="url(#moon)"/>
  <circle cx="850" cy="270" r="122" fill="#fff2cf"/>
  <circle cx="900" cy="245" r="118" fill="#28173d"/>
  <g fill="#ffffff" fill-opacity="0.72">
    <circle cx="170" cy="210" r="4"/>
    <circle cx="260" cy="310" r="4"/>
    <circle cx="420" cy="160" r="3"/>
    <circle cx="690" cy="140" r="5"/>
    <circle cx="1010" cy="390" r="4"/>
  </g>
  <path d="M0 943c132-84 276-126 433-126 151 0 271 25 428 101 86 41 199 42 339 25v257H0z" fill="#09020e"/>
  <path d="M173 917c71-62 144-96 221-96 93 0 157 38 245 124-82 45-154 65-238 65-75 0-145-18-228-93z" fill="#ff90bb" fill-opacity="0.26"/>
  <text x="98" y="150" fill="#fbeff6" font-family="Georgia, serif" font-size="42" letter-spacing="10">MOONLIT THOUGHTS</text>
  <text x="100" y="1045" fill="#fbeff6" font-family="Georgia, serif" font-size="86" font-style="italic">Even the night brings me back to you.</text>
</svg>
